<svg width="29" height="34" viewBox="0 0 29 34" fill="none" xmlns="http://www.w3.org/2000/svg">
<path d="M1.7 34C1.24913 34 0.816731 33.8209 0.497919 33.5021C0.179107 33.1833 0 32.7509 0 32.3V18.7C0 18.2491 0.179107 17.8167 0.497919 17.4979C0.816731 17.1791 1.24913 17 1.7 17C2.15087 17 2.58327 17.1791 2.90208 17.4979C3.22089 17.8167 3.4 18.2491 3.4 18.7V32.3C3.4 32.7509 3.22089 33.1833 2.90208 33.5021C2.58327 33.8209 2.15087 34 1.7 34ZM10.2 34C9.74913 34 9.31673 33.8209 8.99792 33.5021C8.67911 33.1833 8.5 32.7509 8.5 32.3V1.7C8.5 1.24913 8.67911 0.81673 8.99792 0.497918C9.31673 0.179107 9.74913 0 10.2 0C10.6509 0 11.0833 0.179107 11.4021 0.497918C11.7209 0.81673 11.9 1.24913 11.9 1.7V32.3C11.9 32.7509 11.7209 33.1833 11.4021 33.5021C11.0833 33.8209 10.6509 34 10.2 34ZM18.7 34C18.2491 34 17.8167 33.8209 17.4979 33.5021C17.1791 33.1833 17 32.7509 17 32.3V11.9C17 11.4491 17.1791 11.0167 17.4979 10.6979C17.8167 10.3791 18.2491 10.2 18.7 10.2C19.1509 10.2 19.5833 10.3791 19.9021 10.6979C20.2209 11.0167 20.4 11.4491 20.4 11.9V32.3C20.4 32.7509 20.2209 33.1833 19.9021 33.5021C19.5833 33.8209 19.1509 34 18.7 34ZM27.2 34C26.7491 34 26.3167 33.8209 25.9979 33.5021C25.6791 33.1833 25.5 32.7509 25.5 32.3V25.5C25.5 25.0491 25.6791 24.6167 25.9979 24.2979C26.3167 23.9791 26.7491 23.8 27.2 23.8C27.6509 23.8 28.0833 23.9791 28.4021 24.2979C28.7209 24.6167 28.9 25.0491 28.9 25.5V32.3C28.9 32.7509 28.7209 33.1833 28.4021 33.5021C28.0833 33.8209 27.6509 34 27.2 34Z" fill="#A5ABC1"/>
</svg>
