<svg width="10" height="14" viewBox="0 0 10 14" fill="none" xmlns="http://www.w3.org/2000/svg">
<path d="M2.49995 12V13.25C2.49995 13.388 2.61195 13.5 2.74995 13.5H3.74995C3.81626 13.5 3.87985 13.4737 3.92673 13.4268C3.97361 13.3799 3.99995 13.3163 3.99995 13.25V12H4.49995V13.25C4.49995 13.388 4.61195 13.5 4.74995 13.5H5.74995C5.81626 13.5 5.87985 13.4737 5.92673 13.4268C5.97361 13.3799 5.99995 13.3163 5.99995 13.25V12H6.08395C8.07595 12 9.49995 10.967 9.49995 9.18C9.49995 7.678 8.49295 6.857 7.31395 6.74V6.652C8.28395 6.41 8.99695 5.678 8.99695 4.462C8.99695 2.93 7.84695 2 6.09195 2H5.99995V0.75C5.99995 0.683696 5.97361 0.620107 5.92673 0.573223C5.87985 0.526339 5.81626 0.5 5.74995 0.5H4.74995C4.68365 0.5 4.62006 0.526339 4.57318 0.573223C4.52629 0.620107 4.49995 0.683696 4.49995 0.75V2H3.92695V0.75C3.92695 0.683696 3.90061 0.620107 3.85373 0.573223C3.80685 0.526339 3.74326 0.5 3.67695 0.5H2.74995C2.68365 0.5 2.62006 0.526339 2.57318 0.573223C2.52629 0.620107 2.49995 0.683696 2.49995 0.75V2L0.501953 2.011C0.435649 2.011 0.37206 2.03734 0.325176 2.08422C0.278292 2.13111 0.251953 2.1947 0.251953 2.261V3.25C0.251953 3.387 0.361953 3.5 0.499953 3.5L1.25495 3.495C1.453 3.49632 1.64248 3.57592 1.78205 3.71643C1.92163 3.85694 1.99996 4.04695 1.99995 4.245V9.75C1.99995 9.94891 1.92094 10.1397 1.78028 10.2803C1.63963 10.421 1.44887 10.5 1.24995 10.5L0.501953 10.511C0.435649 10.511 0.37206 10.5373 0.325176 10.5842C0.278292 10.6311 0.251953 10.6947 0.251953 10.761V11.761C0.251953 11.899 0.363953 12.011 0.501953 12.011L2.49995 12ZM3.92695 3.487H5.64595C6.55195 3.487 7.08395 3.985 7.08395 4.799C7.08395 5.67 6.50895 6.161 5.20695 6.161H3.92695V3.487V3.487ZM3.92695 7.538H5.76695C6.90395 7.538 7.52295 8.118 7.52295 9.062C7.52295 10.015 6.89695 10.512 5.36495 10.512H3.92695V7.539V7.538Z" fill="#2464FC"/>
</svg>
