<svg width="43" height="35" viewBox="0 0 43 35" fill="none" xmlns="http://www.w3.org/2000/svg">
<path d="M28.2241 5.43447L30.0557 2.35397C26.9475 1.18837 24.0335 0.605577 21.3137 0.605577C15.6523 0.605577 10.7956 2.43723 6.7438 6.10053C2.69197 9.76383 0.444036 14.454 0 20.1709C0 20.615 0.166514 21.0174 0.499541 21.3782C0.832568 21.7389 1.19335 21.9193 1.58188 21.9193H1.91491C2.35894 21.9193 2.74747 21.7667 3.0805 21.4614C3.41353 21.1561 3.58004 20.7815 3.58004 20.3374C3.96857 15.5085 5.84185 11.6094 9.19988 8.63986C12.5579 5.67037 16.5959 4.18562 21.3137 4.18562C24.0335 4.18562 26.3369 4.6019 28.2241 5.43447ZM36.3832 12.3448C37.8818 14.8425 38.7144 17.5067 38.8809 20.3374C38.8809 20.726 39.0336 21.0868 39.3388 21.4198C39.6441 21.7528 40.0188 21.9193 40.4628 21.9193H40.8791C41.3231 21.9193 41.7117 21.7251 42.0447 21.3365C42.3777 20.948 42.5165 20.5595 42.461 20.1709C42.1279 16.0081 40.7681 12.2615 38.3814 8.93126L36.3832 12.3448ZM37.2991 0.605577C36.3555 0.106036 35.5229 0.272549 34.8013 1.10512L33.053 4.01911L31.2213 7.01635L23.2287 20.504C22.5626 20.2819 21.9243 20.1709 21.3137 20.1709C19.3711 20.1709 17.7059 20.8647 16.3183 22.2523C14.9307 23.64 14.2369 25.3051 14.2369 27.2478C14.2369 29.1904 14.9307 30.8556 16.3183 32.2432C17.7059 33.6308 19.3711 34.3246 21.3137 34.3246C23.2564 34.3246 24.9215 33.6308 26.3092 32.2432C27.6968 30.8556 28.3906 29.1904 28.3906 27.2478C28.3906 25.1386 27.6968 23.4734 26.3092 22.2523L34.1353 9.34754L35.8837 6.26704L37.7986 3.10328C38.5202 1.99319 38.3536 1.16062 37.2991 0.605577ZM21.3137 30.8278C20.3702 30.8278 19.5376 30.467 18.816 29.7455C18.0945 29.0239 17.7337 28.1913 17.7337 27.2478C17.7337 26.3042 18.0945 25.4716 18.816 24.7501C19.5376 24.0285 20.3702 23.6677 21.3137 23.6677C22.2573 23.6677 23.0899 24.0285 23.8114 24.7501C24.533 25.4716 24.8938 26.3042 24.8938 27.2478C24.8938 28.1913 24.533 29.0239 23.8114 29.7455C23.0899 30.467 22.2573 30.8278 21.3137 30.8278Z" fill="#2464FC"/>
</svg>
