<svg width="8" height="12" viewBox="0 0 8 12" fill="none" xmlns="http://www.w3.org/2000/svg">
<path d="M0 7.41997H1.063C1.4 10.323 3.317 12 6.34 12C6.962 12 7.507 11.932 7.999 11.815V10.515C7.515 10.634 6.954 10.685 6.34 10.685C4.24 10.685 2.885 9.48697 2.565 7.42097H6.582V6.49297H2.497V5.55697C2.497 5.44697 2.497 5.33797 2.505 5.22797H6.583V4.30097H2.618C3.006 2.40297 4.337 1.31597 6.341 1.31597C6.955 1.31597 7.516 1.36597 8 1.49297V0.193974C7.45741 0.0594909 6.89997 -0.00569492 6.341 -2.59361e-05C3.413 -2.59361e-05 1.521 1.56897 1.097 4.29997H0V5.22797H1.01V6.49297H0V7.42097V7.41997Z" fill="#2464FC"/>
</svg>
