<svg width="36" height="34" viewBox="0 0 36 34" fill="none" xmlns="http://www.w3.org/2000/svg">
<path fill-rule="evenodd" clip-rule="evenodd" d="M15.1111 32.1111C15.1111 31.6101 14.9121 31.1297 14.5579 30.7755C14.2036 30.4212 13.7232 30.2222 13.2222 30.2222H3.77778V3.77778H13.2222C13.7232 3.77778 14.2036 3.57877 14.5579 3.22453C14.9121 2.8703 15.1111 2.38985 15.1111 1.88889C15.1111 1.38792 14.9121 0.907478 14.5579 0.553243C14.2036 0.199007 13.7232 0 13.2222 0H3.77778C2.77585 0 1.81496 0.398015 1.10649 1.10649C0.398015 1.81496 0 2.77585 0 3.77778V30.2222C0 31.2242 0.398015 32.185 1.10649 32.8935C1.81496 33.602 2.77585 34 3.77778 34H13.2222C13.7232 34 14.2036 33.801 14.5579 33.4468C14.9121 33.0925 15.1111 32.6121 15.1111 32.1111Z" fill="#A5ABC1"/>
<path d="M35.3486 18.3221C35.6941 17.9709 35.888 17.4982 35.8888 17.0055V16.9942C35.8878 16.4951 35.6887 16.0168 35.3353 15.6644L27.7798 8.10888C27.6055 7.92847 27.3971 7.78457 27.1667 7.68558C26.9362 7.58658 26.6883 7.53448 26.4375 7.5323C26.1867 7.53012 25.938 7.57791 25.7059 7.67289C25.4737 7.76786 25.2628 7.90812 25.0855 8.08547C24.9081 8.26282 24.7679 8.47372 24.6729 8.70586C24.5779 8.938 24.5301 9.18672 24.5323 9.43753C24.5345 9.68833 24.5866 9.93619 24.6856 10.1666C24.7846 10.3971 24.9285 10.6055 25.1089 10.7798L29.4401 15.111H11.3332C10.8323 15.111 10.3518 15.31 9.99758 15.6642C9.64334 16.0185 9.44434 16.4989 9.44434 16.9999C9.44434 17.5008 9.64334 17.9813 9.99758 18.3355C10.3518 18.6898 10.8323 18.8888 11.3332 18.8888H29.4401L25.1089 23.22C24.7648 23.5762 24.5744 24.0534 24.5787 24.5486C24.583 25.0439 24.7817 25.5177 25.1319 25.8679C25.4821 26.2181 25.9559 26.4167 26.4511 26.421C26.9464 26.4253 27.4235 26.235 27.7798 25.8909L35.3353 18.3353L35.3486 18.3221V18.3221Z" fill="#A5ABC1"/>
</svg>
