<svg width="43" height="35" viewBox="0 0 43 35" fill="none" xmlns="http://www.w3.org/2000/svg">
<path d="M40.378 14.8748H32.0048C31.8568 14.8547 31.7066 14.8547 31.5586 14.8748H31.1973C31.0862 14.9382 30.9797 15.0092 30.8785 15.0873C30.7602 15.1655 30.6466 15.2506 30.5385 15.3424C30.4675 15.4293 30.4036 15.5216 30.3472 15.6186C30.2498 15.7525 30.1645 15.8947 30.0922 16.0437L26.692 25.4156L17.8301 1.40133C17.6812 0.991065 17.4095 0.636598 17.0521 0.386099C16.6947 0.135601 16.2689 0.0012207 15.8324 0.0012207C15.396 0.0012207 14.9701 0.135601 14.6127 0.386099C14.2553 0.636598 13.9837 0.991065 13.8348 1.40133L8.92565 14.8748H2.12516C1.56153 14.8748 1.02099 15.0987 0.622444 15.4973C0.2239 15.8958 0 16.4363 0 17C0 17.5636 0.2239 18.1041 0.622444 18.5027C1.02099 18.9012 1.56153 19.1251 2.12516 19.1251H11.2633C11.3841 19.067 11.4981 18.9957 11.6034 18.9126C11.7217 18.8345 11.8352 18.7493 11.9434 18.6576L12.1346 18.3813C12.2359 18.2501 12.3215 18.1074 12.3897 17.9563L15.8324 8.32934L24.6731 32.5986C24.8216 33.0093 25.093 33.3644 25.4504 33.6153C25.8079 33.8663 26.234 34.001 26.6707 34.0012C27.1075 34.001 27.5335 33.8663 27.891 33.6153C28.2484 33.3644 28.5199 33.0093 28.6684 32.5986L33.5562 19.1251H40.378C40.9416 19.1251 41.4821 18.9012 41.8807 18.5027C42.2792 18.1041 42.5031 17.5636 42.5031 17C42.5031 16.4363 42.2792 15.8958 41.8807 15.4973C41.4821 15.0987 40.9416 14.8748 40.378 14.8748Z" fill="#A5ABC1"/>
</svg>
