<svg width="37" height="35" viewBox="0 0 37 35" fill="none" xmlns="http://www.w3.org/2000/svg">
<path d="M30.8551 23.2729C31.958 20.6524 32.2119 17.7521 31.5811 14.9798C30.9502 12.2076 29.4664 9.70271 27.3382 7.81744C25.21 5.93218 22.5445 4.76131 19.7164 4.46945C16.8883 4.1776 14.0398 4.77943 11.5714 6.19035L9.88528 3.23788C12.4649 1.76354 15.386 0.991426 18.3572 0.998584C21.3284 1.00574 24.2458 1.79192 26.8182 3.27867C34.4501 7.68443 37.3737 17.1181 33.8161 24.9845L36.0972 26.3001L29.0177 30.0634L28.7372 22.0507L30.8551 23.2729V23.2729ZM5.78378 12.7242C4.68088 15.3447 4.42701 18.245 5.05784 21.0172C5.68868 23.7895 7.1725 26.2944 9.30069 28.1796C11.4289 30.0649 14.0944 31.2358 16.9225 31.5276C19.7507 31.8195 22.5991 31.2176 25.0675 29.8067L26.7536 32.7592C24.174 34.2335 21.2529 35.0056 18.2817 34.9985C15.3105 34.9913 12.3932 34.2052 9.82069 32.7184C2.1888 28.3126 -0.734776 18.879 2.82281 11.0125L0.540039 9.69864L7.61951 5.93539L7.89997 13.948L5.78208 12.7259L5.78378 12.7242ZM12.3703 21.398H21.719C21.9444 21.398 22.1605 21.3085 22.3199 21.1491C22.4793 20.9897 22.5688 20.7736 22.5688 20.5482C22.5688 20.3228 22.4793 20.1066 22.3199 19.9472C22.1605 19.7878 21.9444 19.6983 21.719 19.6983H14.92C13.7929 19.6983 12.7121 19.2506 11.9152 18.4537C11.1183 17.6568 10.6706 16.5759 10.6706 15.4489C10.6706 14.3219 11.1183 13.2411 11.9152 12.4441C12.7121 11.6472 13.7929 11.1995 14.92 11.1995H16.6197V9.49977H20.0192V11.1995H24.2686V14.599H14.92C14.6946 14.599 14.4784 14.6886 14.319 14.848C14.1596 15.0073 14.0701 15.2235 14.0701 15.4489C14.0701 15.6743 14.1596 15.8905 14.319 16.0499C14.4784 16.2092 14.6946 16.2988 14.92 16.2988H21.719C22.846 16.2988 23.9268 16.7465 24.7237 17.5434C25.5206 18.3403 25.9684 19.4212 25.9684 20.5482C25.9684 21.6752 25.5206 22.756 24.7237 23.5529C23.9268 24.3498 22.846 24.7975 21.719 24.7975H20.0192V26.4973H16.6197V24.7975H12.3703V21.398Z" fill="#A5ABC1"/>
</svg>
